HIERARCHY
ROOT Hips
{
	OFFSET -0.001795 -0.223333 0.028219
	CHANNELS 6 Xposition Yposition Zposition Zrotation Yrotation Xrotation 
	JOINT LeftUpLeg
	{
		OFFSET 0.069520 -0.091406 -0.006815
		CHANNELS 3 Zrotation Yrotation Xrotation
		JOINT LeftLeg
		{
			OFFSET 0.034277 -0.375199 -0.004496
			CHANNELS 3 Zrotation Yrotation Xrotation
			JOINT LeftFoot
			{
				OFFSET -0.013596 -0.397961 -0.043693
				CHANNELS 3 Zrotation Yrotation Xrotation
				JOINT LeftToe
				{
					OFFSET 0.026358 -0.055791 0.119288
					CHANNELS 3 Zrotation Yrotation Xrotation
					End Site
					{
						OFFSET 0.000000 0.000000 0.000000
					}
				}
			}
		}
	}
	JOINT RightUpLeg
	{
		OFFSET -0.067670 -0.090522 -0.004320
		CHANNELS 3 Zrotation Yrotation Xrotation
		JOINT RightLeg
		{
			OFFSET -0.038290 -0.382569 -0.008850
			CHANNELS 3 Zrotation Yrotation Xrotation
			JOINT RightFoot
			{
				OFFSET 0.015774 -0.398415 -0.042312
				CHANNELS 3 Zrotation Yrotation Xrotation
				JOINT RightToe
				{
					OFFSET -0.025372 -0.048144 0.123348
					CHANNELS 3 Zrotation Yrotation Xrotation
					End Site
					{
						OFFSET 0.000000 0.000000 0.000000
					}
				}
			}
		}
	}
	JOINT Spine
	{
		OFFSET -0.002533 0.108963 -0.026696
		CHANNELS 3 Zrotation Yrotation Xrotation
		JOINT Spine1
		{
			OFFSET 0.005487 0.135180 0.001092
			CHANNELS 3 Zrotation Yrotation Xrotation
			JOINT Spine2
			{
				OFFSET 0.001457 0.052922 0.025425
				CHANNELS 3 Zrotation Yrotation Xrotation
				JOINT Neck
				{
					OFFSET -0.002778 0.213870 -0.042857
					CHANNELS 3 Zrotation Yrotation Xrotation
					JOINT Head
					{
						OFFSET 0.005152 0.064970 0.051349
						CHANNELS 3 Zrotation Yrotation Xrotation
						End Site
						{
							OFFSET 0.000000 0.000000 0.000000
						}
					}
				}
				JOINT LeftShoulder
				{
					OFFSET 0.078845 0.121749 -0.034090
					CHANNELS 3 Zrotation Yrotation Xrotation
					JOINT LeftArm
					{
						OFFSET 0.090977 0.030469 -0.008868
						CHANNELS 3 Zrotation Yrotation Xrotation
						JOINT LeftForeArm
						{
							OFFSET 0.259612 -0.012772 -0.027456
							CHANNELS 3 Zrotation Yrotation Xrotation
							JOINT LeftHand
							{
								OFFSET 0.249234 0.008986 -0.001171
								CHANNELS 3 Zrotation Yrotation Xrotation
								End Site
								{
									OFFSET 0.000000 0.000000 0.000000
								}
							}
						}
					}
				}
				JOINT RightShoulder
				{
					OFFSET -0.081759 0.118833 -0.038615
					CHANNELS 3 Zrotation Yrotation Xrotation
					JOINT RightArm
					{
						OFFSET -0.096012 0.032551 -0.009143
						CHANNELS 3 Zrotation Yrotation Xrotation
						JOINT RightForeArm
						{
							OFFSET -0.253742 -0.013329 -0.021401
							CHANNELS 3 Zrotation Yrotation Xrotation
							JOINT RightHand
							{
								OFFSET -0.255298 0.007772 -0.005559
								CHANNELS 3 Zrotation Yrotation Xrotation
								End Site
								{
									OFFSET 0.000000 0.000000 0.000000
								}
							}
						}
					}
				}
			}
		}
	}
}
MOTION
Frames: 5
Frame Time: 0.050000
0.002153 0.993287 -0.008953 -0.006102 -20.255754 -4.638123 8.913898 0.505485 -8.117240 1.618752 0.682118 -14.054148 39.793411 28.422872 126.361477 0.000000 0.000000 0.000000 -5.598953 1.087903 -12.555196 3.293948 -0.089880 -9.645355 -54.017029 -15.857437 123.001192 0.000000 0.000000 0.000000 -0.657801 -0.032482 16.462649 3.909728 2.652674 -45.979606 -1.846061 6.832229 47.724852 -0.302232 6.218163 -96.139681 0.000000 0.000000 0.000000 -14.235231 -20.699834 11.121394 -27.956250 -39.006763 1.654445 -28.070567 13.936306 -3.544333 0.000000 0.000000 0.000000 3.694401 8.017807 2.629131 53.906359 -15.407813 -16.974095 -92.347560 -50.666726 52.769739 0.000000 0.000000 0.000000 
0.003239 0.993469 -0.010267 -0.258379 -20.237472 -4.477855 9.237409 0.548877 -8.075113 1.557135 0.692935 -14.167077 38.537304 28.449993 125.895319 0.000000 0.000000 0.000000 -5.544218 1.111314 -12.784053 3.375380 -0.091201 -9.587403 -53.837133 -15.971001 122.864423 0.000000 0.000000 0.000000 -1.026783 0.021928 16.567368 3.747187 2.657895 -46.035425 -1.252195 7.500114 47.751235 -1.541271 5.866513 -96.632455 0.000000 0.000000 0.000000 -13.690732 -22.042708 11.431736 -26.508497 -40.050289 1.616152 -26.484557 13.323042 -3.262290 0.000000 0.000000 0.000000 4.172450 9.088392 3.055111 54.754032 -15.422703 -17.187531 -92.773246 -52.026984 55.007606 0.000000 0.000000 0.000000 
0.004872 0.992998 -0.011134 -0.346039 -20.021421 -4.633576 9.332593 0.552617 -7.554440 1.266012 0.765791 -14.921272 40.865829 28.215711 126.981184 0.000000 0.000000 0.000000 -5.834340 1.043504 -12.195717 3.535140 -0.059123 -10.527841 -53.383557 -15.803699 123.271054 0.000000 0.000000 0.000000 -1.207880 0.062445 17.098744 3.220534 2.633999 -45.978869 -1.064518 7.274938 47.625434 -2.869307 5.801534 -97.471652 0.000000 0.000000 0.000000 -13.056147 -22.788033 11.560888 -25.091866 -41.257321 1.628992 -26.489345 12.941485 -3.181428 0.000000 0.000000 0.000000 4.318684 10.153244 3.434328 55.312294 -14.630881 -16.981789 -89.083958 -53.547383 53.582268 0.000000 0.000000 0.000000 
0.007047 0.992839 -0.011437 -0.626628 -20.027935 -4.818428 9.503949 0.577710 -7.064475 1.259792 0.800263 -15.294972 40.518870 28.218787 126.773967 0.000000 0.000000 0.000000 -6.032794 0.997987 -11.765104 4.021237 -0.026975 -10.852283 -53.904959 -16.125740 122.856986 0.000000 0.000000 0.000000 -1.372338 0.099813 17.464147 3.182560 2.553366 -45.555474 -0.757984 8.079488 47.214656 -3.750100 5.426702 -97.748975 0.000000 0.000000 0.000000 -13.239477 -23.733082 11.887297 -23.940194 -41.862716 1.476200 -25.963785 12.968828 -3.175519 0.000000 0.000000 0.000000 5.190835 11.314717 3.924968 56.055193 -13.941774 -16.764628 -87.935881 -55.951691 55.456705 0.000000 0.000000 0.000000 
0.009401 0.993225 -0.011454 -0.785845 -19.522662 -4.928529 9.418999 0.550424 -6.866550 1.320717 0.825682 -15.625120 40.333643 28.065325 126.519285 0.000000 0.000000 0.000000 -6.228622 0.955031 -11.432056 4.344225 -0.006633 -11.310769 -53.781946 -16.314723 123.024182 0.000000 0.000000 0.000000 -1.456963 0.108438 17.802144 3.033824 2.503587 -45.541661 -0.657363 8.326412 47.134426 -4.202426 5.193187 -98.050150 0.000000 0.000000 0.000000 -13.533089 -24.139209 12.043626 -23.941530 -42.560736 1.574740 -25.283411 12.663808 -3.042297 0.000000 0.000000 0.000000 5.832018 11.971605 4.240361 56.945508 -13.671651 -16.835919 -83.843654 -57.737998 54.194792 0.000000 0.000000 0.000000 
